# xmcd
#
# Track frame offsets:
#	150
#	10761
#	18409
#	27703
#	39261
#	51104
#	58661
#	69021
#	80417
#	91542
#	100963
#	110932
#	120695
#	134774
#
# Disc length: 1931 seconds
#
# Revision: 0
# Processed by: cddbd v1.5.2PL0 Copyright (c) Steve Scherf et al.
# Submitted via: EasyCDDAExtractor 2010.6.0.0
#
DISCID=b507890e
DTITLE=Mike Bell and the Belltones - Scream and Holler!!!
DYEAR=2010
DGENRE=
TTITLE0=Let's rock tonight
TTITLE1=Scream and Holler
TTITLE2=Oh yeah, I'm in love
TTITLE3=Moonlight rock
TTITLE4=Let's pretend we're sweethearts
TTITLE5=She can rock
TTITLE6=Gonna ride the wild surf
TTITLE7=Lord, I'm in trouble again
TTITLE8=Breakin' hearts
TTITLE9=Jimmy's car and Johnny's girl
TTITLE10=Rockin' on Mars
TTITLE11=Rockin' Record hop
TTITLE12=The shape of love
TTITLE13=There's a party goin' on
EXTD=
EXTT0=
EXTT1=
EXTT2=
EXTT3=
EXTT4=
EXTT5=
EXTT6=
EXTT7=
EXTT8=
EXTT9=
EXTT10=
EXTT11=
EXTT12=
EXTT13=
PLAYORDER=
